<?xml version="1.0" encoding="iso-8859-1"?>
<!-- Generator: Adobe Illustrator 16.0.0, SVG Export Plug-In . SVG Version: 6.00 Build 0)  -->
<!DOCTYPE svg PUBLIC "-//W3C//DTD SVG 1.1//EN" "http://www.w3.org/Graphics/SVG/1.1/DTD/svg11.dtd">
<svg xmlns="http://www.w3.org/2000/svg" xmlns:xlink="http://www.w3.org/1999/xlink" version="1.1" id="Capa_1" x="0px" y="0px" width="512px" height="512px" viewBox="0 0 31.537 31.537" style="enable-background:new 0 0 31.537 31.537;" xml:space="preserve">
<g>
	<g>
		<path d="M9.502,23.96h12.532v-7.298H9.502V23.96z M19.994,18.1c-0.649,0.68-1.912,1.493-4.225,1.493    c-2.313,0-3.575-0.813-4.225-1.493H19.994z M10.94,19.502c0.916,0.77,2.428,1.528,4.828,1.528c2.399,0,3.913-0.759,4.829-1.527    v3.02H10.94V19.502z" fill="#FFFFFF"/>
		<path d="M31.536,10.182c-0.022-1.987-0.376-4.65-1.917-6.048c-0.85-0.772-1.891-1.148-3.003-1.083    c-1.8,0.103-3.38,1.317-4.228,2.104c-0.575-0.244-1.206-0.382-1.869-0.382h-9.502c-0.663,0-1.292,0.139-1.868,0.382    c-0.849-0.787-2.428-2-4.228-2.104C3.811,2.985,2.77,3.361,1.917,4.134c-1.54,1.398-1.892,4.061-1.916,6.048    c-0.059,4.922,1.825,11.98,5.429,15.829L5.377,27.14h2.231v1.354h3.583V27.14h9.153v1.354h3.584V27.14h2.231l-0.054-1.129    C29.71,22.162,31.595,15.104,31.536,10.182z M6.218,9.35L5.645,21.479c-1.843-3.346-2.871-7.845-2.83-11.263    C2.843,7.908,3.347,6.637,3.81,6.217c0.295-0.268,0.595-0.375,0.947-0.358C5.514,5.901,6.373,6.48,6.984,6.997    C6.543,7.682,6.259,8.48,6.218,9.35z M7.343,25.265L8.09,9.439c0.074-1.566,1.36-2.792,2.927-2.792h9.502    c1.566,0,2.854,1.226,2.928,2.792l0.748,15.826H7.343z M25.32,9.35c-0.04-0.87-0.325-1.667-0.767-2.354    c0.61-0.517,1.471-1.096,2.229-1.138c0.353-0.016,0.651,0.091,0.947,0.358c0.461,0.42,0.967,1.691,0.994,3.999    c0.041,3.418-0.986,7.918-2.83,11.264L25.32,9.35z" fill="#FFFFFF"/>
		<path d="M21.239,10.477H10.208c-0.552,0-1,0.448-1,1c0,0.552,0.448,1,1,1h8.89l-0.282,1.561c-0.021,0.108-0.021,0.225,0,0.339    c0.094,0.518,0.589,0.861,1.106,0.768c0.519-0.093,0.861-0.589,0.769-1.107l-0.281-1.561h0.829c0.553,0,1-0.448,1-1    C22.239,10.925,21.791,10.477,21.239,10.477z" fill="#FFFFFF"/>
	</g>
</g>
<g>
</g>
<g>
</g>
<g>
</g>
<g>
</g>
<g>
</g>
<g>
</g>
<g>
</g>
<g>
</g>
<g>
</g>
<g>
</g>
<g>
</g>
<g>
</g>
<g>
</g>
<g>
</g>
<g>
</g>
</svg>
