<?xml version="1.0" encoding="iso-8859-1"?>
<!-- Generator: Adobe Illustrator 16.0.0, SVG Export Plug-In . SVG Version: 6.00 Build 0)  -->
<!DOCTYPE svg PUBLIC "-//W3C//DTD SVG 1.1//EN" "http://www.w3.org/Graphics/SVG/1.1/DTD/svg11.dtd">
<svg xmlns="http://www.w3.org/2000/svg" xmlns:xlink="http://www.w3.org/1999/xlink" version="1.1" id="Capa_1" x="0px" y="0px" width="512px" height="512px" viewBox="0 0 45.875 45.875" style="enable-background:new 0 0 45.875 45.875;" xml:space="preserve">
<g>
	<path d="M39.961,19.971v-1.31c0-5.47-3.067-9.938-7.349-11.269C31.447,3.139,27.557,0,22.939,0c-4.619,0-8.508,3.138-9.676,7.391   c-4.278,1.33-7.348,5.798-7.348,11.269v1.31c-2.988,0.343-5.311,2.878-5.311,5.958v13.947c0,3.312,2.687,6,6,6   c0.955,0,1.854-0.229,2.654-0.625c0.803,0.396,1.701,0.625,2.656,0.625h22.049c0.93,0,1.834-0.223,2.654-0.626   c0.801,0.397,1.698,0.626,2.653,0.626c3.313,0,6-2.688,6-6V25.928C45.273,22.848,42.95,20.312,39.961,19.971z M22.94,5   c1.621,0,3.051,0.783,3.977,1.977h-7.951C19.888,5.784,21.318,5,22.94,5z M31.607,39.105H14.274c-1.657,0-3-1.344-3-3   c0-6.435,5.233-11.668,11.667-11.668c6.435,0,11.666,5.232,11.666,11.668C34.607,37.762,33.263,39.105,31.607,39.105z" fill="#FFFFFF"/>
</g>
<g>
</g>
<g>
</g>
<g>
</g>
<g>
</g>
<g>
</g>
<g>
</g>
<g>
</g>
<g>
</g>
<g>
</g>
<g>
</g>
<g>
</g>
<g>
</g>
<g>
</g>
<g>
</g>
<g>
</g>
</svg>
