{
    "asset" : {
        "generator" : "Khronos glTF Blender I/O v1.1.46",
        "version" : "2.0"
    },
    "extensionsUsed" : [
        "KHR_lights_punctual"
    ],
    "extensionsRequired" : [
        "KHR_lights_punctual"
    ],
    "extensions" : {
        "KHR_lights_punctual" : {
            "lights" : [
                {
                    "color" : [
                        0.46666666865348816,
                        0.6000000238418579,
                        0.7137255072593689
                    ],
                    "intensity" : 0.75,
                    "type" : "directional",
                    "name" : "BackLight"
                },
                {
                    "color" : [
                        0.8980392217636108,
                        0.8313725590705872,
                        0.7058823704719543
                    ],
                    "intensity" : 0.8500000238418579,
                    "type" : "directional",
                    "name" : "FillLight"
                },
                {
                    "color" : [
                        1,
                        0.9843137264251709,
                        0.95686274766922
                    ],
                    "intensity" : 1,
                    "type" : "directional",
                    "name" : "KeyLight"
                }
            ]
        }
    },
    "scene" : 0,
    "scenes" : [
        {
            "name" : "MP5k_",
            "nodes" : [
                6,
                12
            ]
        }
    ],
    "nodes" : [
        {
            "extensions" : {
                "KHR_lights_punctual" : {
                    "light" : 0
                }
            },
            "name" : "BackLight_Orientation",
            "rotation" : [
                -0.7071067690849304,
                0,
                0,
                0.7071067690849304
            ]
        },
        {
            "children" : [
                0
            ],
            "name" : "BackLight",
            "rotation" : [
                -0.09426166117191315,
                -0.5286204218864441,
                0.5286204218864441,
                0.6574462652206421
            ],
            "translation" : [
                -493.6622009277344,
                350.99835205078125,
                -566.1264038085938
            ]
        },
        {
            "extensions" : {
                "KHR_lights_punctual" : {
                    "light" : 1
                }
            },
            "name" : "FillLight_Orientation",
            "rotation" : [
                -0.7071067690849304,
                0,
                0,
                0.7071067690849304
            ]
        },
        {
            "children" : [
                2
            ],
            "name" : "FillLight",
            "rotation" : [
                0.18451330065727234,
                0.38790223002433777,
                -0.38790223002433777,
                0.81548672914505
            ],
            "translation" : [
                1235.853759765625,
                1005.1383666992188,
                0
            ]
        },
        {
            "extensions" : {
                "KHR_lights_punctual" : {
                    "light" : 2
                }
            },
            "name" : "KeyLight_Orientation",
            "rotation" : [
                -0.7071067690849304,
                0,
                0,
                0.7071067690849304
            ]
        },
        {
            "children" : [
                4
            ],
            "name" : "KeyLight",
            "rotation" : [
                0.34885695576667786,
                -0.21351519227027893,
                0.21351522207260132,
                0.8871986269950867
            ],
            "translation" : [
                -437.6248474121094,
                551.6976318359375,
                437.6248474121094
            ]
        },
        {
            "children" : [
                1,
                3,
                5
            ],
            "name" : "LightPreset",
            "translation" : [
                0.9630599617958069,
                0.26255035400390625,
                -30.857322692871094
            ]
        },
        {
            "mesh" : 0,
            "name" : "Tape"
        },
        {
            "children" : [
                7
            ],
            "mesh" : 1,
            "name" : "Ammo",
            "translation" : [
                0.19227899610996246,
                -35.406700134277344,
                18.691099166870117
            ]
        },
        {
            "mesh" : 2,
            "name" : "Bolt",
            "translation" : [
                0,
                0,
                106.15399932861328
            ]
        },
        {
            "mesh" : 3,
            "name" : "Mesh_0005",
            "translation" : [
                0,
                -0.11599300056695938,
                106.09100341796875
            ]
        },
        {
            "mesh" : 4,
            "name" : "Trigger",
            "translation" : [
                0,
                0,
                106.15399932861328
            ]
        },
        {
            "children" : [
                8,
                9,
                10,
                11
            ],
            "mesh" : 5,
            "name" : "Body",
            "rotation" : [
                1,
                0,
                0,
                -3.422854177870249e-08
            ],
            "translation" : [
                0.6726070046424866,
                0,
                -29.596599578857422
            ]
        }
    ],
    "materials" : [
        {
            "doubleSided" : true,
            "name" : "Material__28",
            "pbrMetallicRoughness" : {}
        },
        {
            "doubleSided" : true,
            "name" : "Material__31",
            "pbrMetallicRoughness" : {}
        },
        {
            "doubleSided" : true,
            "name" : "Tex_0004_1_dds",
            "pbrMetallicRoughness" : {}
        }
    ],
    "meshes" : [
        {
            "name" : "Tape",
            "primitives" : [
                {
                    "attributes" : {
                        "POSITION" : 0,
                        "NORMAL" : 1,
                        "TEXCOORD_0" : 2
                    },
                    "indices" : 3,
                    "material" : 0
                }
            ]
        },
        {
            "name" : "Ammo",
            "primitives" : [
                {
                    "attributes" : {
                        "POSITION" : 4,
                        "NORMAL" : 5,
                        "TEXCOORD_0" : 6
                    },
                    "indices" : 7,
                    "material" : 1
                }
            ]
        },
        {
            "name" : "Bolt",
            "primitives" : [
                {
                    "attributes" : {
                        "POSITION" : 8,
                        "NORMAL" : 9,
                        "TEXCOORD_0" : 10
                    },
                    "indices" : 11,
                    "material" : 2
                }
            ]
        },
        {
            "name" : "Mesh_0005",
            "primitives" : [
                {
                    "attributes" : {
                        "POSITION" : 12,
                        "NORMAL" : 13,
                        "TEXCOORD_0" : 14
                    },
                    "indices" : 15,
                    "material" : 1
                }
            ]
        },
        {
            "name" : "Trigger",
            "primitives" : [
                {
                    "attributes" : {
                        "POSITION" : 16,
                        "NORMAL" : 17,
                        "TEXCOORD_0" : 18
                    },
                    "indices" : 19,
                    "material" : 1
                }
            ]
        },
        {
            "name" : "Body",
            "primitives" : [
                {
                    "attributes" : {
                        "POSITION" : 20,
                        "NORMAL" : 21,
                        "TEXCOORD_0" : 22
                    },
                    "indices" : 23,
                    "material" : 1
                }
            ]
        }
    ],
    "accessors" : [
        {
            "bufferView" : 0,
            "componentType" : 5126,
            "count" : 82,
            "max" : [
                2.76727294921875,
                51.686767578125,
                -23.688472747802734
            ],
            "min" : [
                -2.9862518310546875,
                40.276611328125,
                -33.951412200927734
            ],
            "type" : "VEC3"
        },
        {
            "bufferView" : 1,
            "componentType" : 5126,
            "count" : 82,
            "type" : "VEC3"
        },
        {
            "bufferView" : 2,
            "componentType" : 5126,
            "count" : 82,
            "type" : "VEC2"
        },
        {
            "bufferView" : 3,
            "componentType" : 5123,
            "count" : 96,
            "type" : "SCALAR"
        },
        {
            "bufferView" : 4,
            "componentType" : 5126,
            "count" : 360,
            "max" : [
                2.461090087890625,
                66.8486328125,
                -19.068601608276367
            ],
            "min" : [
                -2.6994476318359375,
                23.533447265625,
                -41.29979705810547
            ],
            "type" : "VEC3"
        },
        {
            "bufferView" : 5,
            "componentType" : 5126,
            "count" : 360,
            "type" : "VEC3"
        },
        {
            "bufferView" : 6,
            "componentType" : 5126,
            "count" : 360,
            "type" : "VEC2"
        },
        {
            "bufferView" : 7,
            "componentType" : 5123,
            "count" : 558,
            "type" : "SCALAR"
        },
        {
            "bufferView" : 8,
            "componentType" : 5126,
            "count" : 196,
            "max" : [
                5.851902008056641,
                -20.607389450073242,
                -118.10369110107422
            ],
            "min" : [
                -0.10994366556406021,
                -23.630456924438477,
                -136.8312225341797
            ],
            "type" : "VEC3"
        },
        {
            "bufferView" : 9,
            "componentType" : 5126,
            "count" : 196,
            "type" : "VEC3"
        },
        {
            "bufferView" : 10,
            "componentType" : 5126,
            "count" : 196,
            "type" : "VEC2"
        },
        {
            "bufferView" : 11,
            "componentType" : 5123,
            "count" : 711,
            "type" : "SCALAR"
        },
        {
            "bufferView" : 12,
            "componentType" : 5126,
            "count" : 618,
            "max" : [
                2.964935302734375,
                -21.347532272338867,
                -70.75537109375
            ],
            "min" : [
                -2.79827880859375,
                -29.223020553588867,
                -80.30517578125
            ],
            "type" : "VEC3"
        },
        {
            "bufferView" : 13,
            "componentType" : 5126,
            "count" : 618,
            "type" : "VEC3"
        },
        {
            "bufferView" : 14,
            "componentType" : 5126,
            "count" : 618,
            "type" : "VEC2"
        },
        {
            "bufferView" : 15,
            "componentType" : 5123,
            "count" : 960,
            "type" : "SCALAR"
        },
        {
            "bufferView" : 16,
            "componentType" : 5126,
            "count" : 132,
            "max" : [
                0.7925872802734375,
                8.30072021484375,
                -88.34310150146484
            ],
            "min" : [
                -0.6254463195800781,
                0.33996471762657166,
                -92.59090423583984
            ],
            "type" : "VEC3"
        },
        {
            "bufferView" : 17,
            "componentType" : 5126,
            "count" : 132,
            "type" : "VEC3"
        },
        {
            "bufferView" : 18,
            "componentType" : 5126,
            "count" : 132,
            "type" : "VEC2"
        },
        {
            "bufferView" : 19,
            "componentType" : 5123,
            "count" : 228,
            "type" : "SCALAR"
        },
        {
            "bufferView" : 20,
            "componentType" : 5126,
            "count" : 5970,
            "max" : [
                5.437652587890625,
                26.494508743286133,
                42.71555709838867
            ],
            "min" : [
                -5.27099609375,
                -31.96703338623047,
                -40.19411087036133
            ],
            "type" : "VEC3"
        },
        {
            "bufferView" : 21,
            "componentType" : 5126,
            "count" : 5970,
            "type" : "VEC3"
        },
        {
            "bufferView" : 22,
            "componentType" : 5126,
            "count" : 5970,
            "type" : "VEC2"
        },
        {
            "bufferView" : 23,
            "componentType" : 5123,
            "count" : 16428,
            "type" : "SCALAR"
        }
    ],
    "bufferViews" : [
        {
            "buffer" : 0,
            "byteLength" : 984,
            "byteOffset" : 0
        },
        {
            "buffer" : 0,
            "byteLength" : 984,
            "byteOffset" : 984
        },
        {
            "buffer" : 0,
            "byteLength" : 656,
            "byteOffset" : 1968
        },
        {
            "buffer" : 0,
            "byteLength" : 192,
            "byteOffset" : 2624
        },
        {
            "buffer" : 0,
            "byteLength" : 4320,
            "byteOffset" : 2816
        },
        {
            "buffer" : 0,
            "byteLength" : 4320,
            "byteOffset" : 7136
        },
        {
            "buffer" : 0,
            "byteLength" : 2880,
            "byteOffset" : 11456
        },
        {
            "buffer" : 0,
            "byteLength" : 1116,
            "byteOffset" : 14336
        },
        {
            "buffer" : 0,
            "byteLength" : 2352,
            "byteOffset" : 15452
        },
        {
            "buffer" : 0,
            "byteLength" : 2352,
            "byteOffset" : 17804
        },
        {
            "buffer" : 0,
            "byteLength" : 1568,
            "byteOffset" : 20156
        },
        {
            "buffer" : 0,
            "byteLength" : 1422,
            "byteOffset" : 21724
        },
        {
            "buffer" : 0,
            "byteLength" : 7416,
            "byteOffset" : 23148
        },
        {
            "buffer" : 0,
            "byteLength" : 7416,
            "byteOffset" : 30564
        },
        {
            "buffer" : 0,
            "byteLength" : 4944,
            "byteOffset" : 37980
        },
        {
            "buffer" : 0,
            "byteLength" : 1920,
            "byteOffset" : 42924
        },
        {
            "buffer" : 0,
            "byteLength" : 1584,
            "byteOffset" : 44844
        },
        {
            "buffer" : 0,
            "byteLength" : 1584,
            "byteOffset" : 46428
        },
        {
            "buffer" : 0,
            "byteLength" : 1056,
            "byteOffset" : 48012
        },
        {
            "buffer" : 0,
            "byteLength" : 456,
            "byteOffset" : 49068
        },
        {
            "buffer" : 0,
            "byteLength" : 71640,
            "byteOffset" : 49524
        },
        {
            "buffer" : 0,
            "byteLength" : 71640,
            "byteOffset" : 121164
        },
        {
            "buffer" : 0,
            "byteLength" : 47760,
            "byteOffset" : 192804
        },
        {
            "buffer" : 0,
            "byteLength" : 32856,
            "byteOffset" : 240564
        }
    ],
    "buffers" : [
        {
            "byteLength" : 273420,
            "uri" : "data:application/octet-stream;base64,"
        }
    ]
}
